<mxfile host="65bd71144e">
    <diagram id="dnMhSj5Qqdryhc1LSWHy" name="第 1 页">
        <mxGraphModel dx="1970" dy="2301" grid="1" gridSize="10" guides="1" tooltips="1" connect="1" arrows="1" fold="1" page="1" pageScale="1" pageWidth="827" pageHeight="1169" math="0" shadow="0">
            <root>
                <mxCell id="0"/>
                <mxCell id="1" parent="0"/>
                <mxCell id="138" value="" style="rounded=0;whiteSpace=wrap;html=1;" parent="1" vertex="1">
                    <mxGeometry x="-190" y="-390" width="1190" height="1360" as="geometry"/>
                </mxCell>
                <mxCell id="21" value="" style="group;fontFamily=JetBrains Mono;fontSize=15;dashed=1;" parent="1" vertex="1" connectable="0">
                    <mxGeometry x="390" y="-20" width="360" height="160" as="geometry"/>
                </mxCell>
                <mxCell id="80" value="" style="group" parent="21" vertex="1" connectable="0">
                    <mxGeometry x="-20" y="-240" width="350" height="360" as="geometry"/>
                </mxCell>
                <object label="&lt;div&gt;&lt;br&gt;&lt;/div&gt;" bb0="bb" id="13">
                    <mxCell style="rounded=1;whiteSpace=wrap;html=1;arcSize=6;fontFamily=JetBrains Mono;fontSize=15;" parent="80" vertex="1">
                        <mxGeometry y="20" width="350" height="300" as="geometry"/>
                    </mxCell>
                </object>
                <mxCell id="56" value="&lt;font&gt;bb0[OUT]&lt;/font&gt;" style="rounded=0;whiteSpace=wrap;html=1;fillColor=#f5f5f5;fontColor=#333333;strokeColor=#666666;fontSize=15;fontFamily=JetBrains Mono;dashed=1;" parent="80" vertex="1">
                    <mxGeometry x="165.42" y="270" width="74.58" height="40.91" as="geometry"/>
                </mxCell>
                <mxCell id="2" value="&lt;font&gt;_4 = Gt(copy _2, const 5_i32);&lt;/font&gt;" style="rounded=0;whiteSpace=wrap;html=1;fillColor=#f5f5f5;fontColor=#333333;strokeColor=#666666;fontSize=15;fontFamily=JetBrains Mono;" parent="80" vertex="1">
                    <mxGeometry x="93.9" y="130" width="239.02" height="40.91" as="geometry"/>
                </mxCell>
                <mxCell id="59" value="" style="endArrow=classic;html=1;fillColor=#008a00;strokeColor=#005700;strokeWidth=2;entryX=0.476;entryY=-0.011;entryDx=0;entryDy=0;entryPerimeter=0;exitX=0.471;exitY=1.008;exitDx=0;exitDy=0;exitPerimeter=0;" parent="80" source="2" target="5" edge="1">
                    <mxGeometry relative="1" as="geometry">
                        <mxPoint x="201" y="180" as="sourcePoint"/>
                        <mxPoint x="202.10000000000008" y="220.91000000000008" as="targetPoint"/>
                    </mxGeometry>
                </mxCell>
                <mxCell id="60" value="&lt;font style=&quot;font-size: 15px;&quot; face=&quot;JetBrains Mono&quot;&gt;_4&lt;/font&gt;" style="edgeLabel;resizable=0;html=1;;align=center;verticalAlign=middle;" parent="59" connectable="0" vertex="1">
                    <mxGeometry relative="1" as="geometry">
                        <mxPoint as="offset"/>
                    </mxGeometry>
                </mxCell>
                <mxCell id="5" value="&lt;div&gt;&lt;font&gt;switchInt(move _4) -&amp;gt; [0: bb2, otherwise: bb1];&lt;/font&gt;&lt;br&gt;&lt;/div&gt;" style="rounded=0;whiteSpace=wrap;html=1;fillColor=#f5f5f5;fontColor=#333333;strokeColor=#666666;fontSize=15;fontFamily=JetBrains Mono;" parent="80" vertex="1">
                    <mxGeometry x="93.9" y="210" width="239.02" height="39.09" as="geometry"/>
                </mxCell>
                <mxCell id="136" value="&lt;font&gt;bb0&lt;/font&gt;" style="text;html=1;align=center;verticalAlign=middle;whiteSpace=wrap;rounded=0;fontFamily=JetBrains Mono;fontSize=15;" parent="80" vertex="1">
                    <mxGeometry x="291.3109756097561" y="25.453636363636363" width="51.21951219512195" height="24.545454545454547" as="geometry"/>
                </mxCell>
                <mxCell id="55" value="&lt;font&gt;bb0[IN]&lt;/font&gt;" style="rounded=0;whiteSpace=wrap;html=1;fillColor=#f5f5f5;fontColor=#333333;strokeColor=#666666;fontSize=15;fontFamily=JetBrains Mono;dashed=1;" parent="80" vertex="1">
                    <mxGeometry x="157.07" y="50" width="77.5" height="40" as="geometry"/>
                </mxCell>
                <mxCell id="57" value="" style="endArrow=classic;html=1;fillColor=#008a00;strokeColor=#005700;strokeWidth=2;exitX=0.596;exitY=0.973;exitDx=0;exitDy=0;entryX=0.456;entryY=0.096;entryDx=0;entryDy=0;entryPerimeter=0;exitPerimeter=0;" parent="80" source="55" target="2" edge="1">
                    <mxGeometry relative="1" as="geometry">
                        <mxPoint x="61.25" y="270" as="sourcePoint"/>
                        <mxPoint x="161.25" y="270" as="targetPoint"/>
                    </mxGeometry>
                </mxCell>
                <mxCell id="58" value="&lt;font style=&quot;font-size: 15px;&quot; face=&quot;JetBrains Mono&quot;&gt;_2&lt;/font&gt;" style="edgeLabel;resizable=0;html=1;;align=center;verticalAlign=middle;" parent="57" connectable="0" vertex="1">
                    <mxGeometry relative="1" as="geometry"/>
                </mxCell>
                <mxCell id="73" value="" style="endArrow=classic;html=1;fillColor=#008a00;strokeColor=#005700;strokeWidth=2;exitX=0;exitY=0.75;exitDx=0;exitDy=0;entryX=0;entryY=0.5;entryDx=0;entryDy=0;edgeStyle=orthogonalEdgeStyle;dashed=1;" parent="80" source="55" target="56" edge="1">
                    <mxGeometry relative="1" as="geometry">
                        <mxPoint x="172.5" y="30" as="sourcePoint"/>
                        <mxPoint x="211.25" y="340.0000000000002" as="targetPoint"/>
                        <Array as="points">
                            <mxPoint x="41" y="80"/>
                            <mxPoint x="41" y="290"/>
                        </Array>
                    </mxGeometry>
                </mxCell>
                <mxCell id="74" value="&lt;font style=&quot;font-size: 15px;&quot; face=&quot;JetBrains Mono&quot;&gt;_0,_1,_2,_3,_5,_6&lt;/font&gt;" style="edgeLabel;resizable=0;html=1;;align=center;verticalAlign=middle;" parent="73" connectable="0" vertex="1">
                    <mxGeometry relative="1" as="geometry">
                        <mxPoint x="46" y="1" as="offset"/>
                    </mxGeometry>
                </mxCell>
                <mxCell id="31" value="" style="group;fontFamily=JetBrains Mono;fontSize=15;" parent="1" vertex="1" connectable="0">
                    <mxGeometry x="-10" y="100" width="360" height="330" as="geometry"/>
                </mxCell>
                <object label="&lt;div&gt;&lt;br&gt;&lt;/div&gt;" bb0="bb" id="20">
                    <mxCell style="rounded=1;whiteSpace=wrap;html=1;arcSize=6;fontFamily=JetBrains Mono;fontSize=15;" parent="31" vertex="1">
                        <mxGeometry x="-90" width="420" height="330" as="geometry"/>
                    </mxCell>
                </object>
                <mxCell id="3" value="&lt;div&gt;&lt;font&gt;_1 = Add(copy _1, copy _2);&lt;/font&gt;&lt;/div&gt;" style="rounded=0;whiteSpace=wrap;html=1;fillColor=#f5f5f5;fontColor=#333333;strokeColor=#666666;fontSize=15;fontFamily=JetBrains Mono;" parent="31" vertex="1">
                    <mxGeometry x="40" y="120" width="280" height="30" as="geometry"/>
                </mxCell>
                <mxCell id="6" value="&lt;font&gt;goto -&amp;gt; bb2;&lt;/font&gt;" style="rounded=0;whiteSpace=wrap;html=1;fillColor=#f5f5f5;fontColor=#333333;strokeColor=#666666;fontSize=15;fontFamily=JetBrains Mono;" parent="31" vertex="1">
                    <mxGeometry x="40" y="200" width="280" height="30" as="geometry"/>
                </mxCell>
                <mxCell id="19" value="&lt;font&gt;bb1&lt;/font&gt;" style="text;html=1;align=center;verticalAlign=middle;whiteSpace=wrap;rounded=0;fontFamily=JetBrains Mono;fontSize=15;" parent="31" vertex="1">
                    <mxGeometry x="150" width="60" height="30" as="geometry"/>
                </mxCell>
                <mxCell id="86" value="&lt;font&gt;bb1[IN]&lt;/font&gt;" style="rounded=0;whiteSpace=wrap;html=1;fillColor=#f5f5f5;fontColor=#333333;strokeColor=#666666;fontSize=15;fontFamily=JetBrains Mono;dashed=1;" parent="31" vertex="1">
                    <mxGeometry x="141.25" y="40" width="77.5" height="40" as="geometry"/>
                </mxCell>
                <mxCell id="87" value="&lt;font&gt;bb1[OUT]&lt;/font&gt;" style="rounded=0;whiteSpace=wrap;html=1;fillColor=#f5f5f5;fontColor=#333333;strokeColor=#666666;fontSize=15;fontFamily=JetBrains Mono;dashed=1;" parent="31" vertex="1">
                    <mxGeometry x="141.25" y="270" width="77.5" height="40" as="geometry"/>
                </mxCell>
                <mxCell id="88" value="" style="endArrow=classic;html=1;fillColor=#008a00;strokeColor=#005700;strokeWidth=2;exitX=0;exitY=0.5;exitDx=0;exitDy=0;edgeStyle=orthogonalEdgeStyle;entryX=0;entryY=0.5;entryDx=0;entryDy=0;dashed=1;" parent="31" source="86" target="87" edge="1">
                    <mxGeometry relative="1" as="geometry">
                        <mxPoint x="80" y="60" as="sourcePoint"/>
                        <mxPoint x="90" y="350" as="targetPoint"/>
                        <Array as="points">
                            <mxPoint x="-20" y="60"/>
                            <mxPoint x="-20" y="290"/>
                        </Array>
                    </mxGeometry>
                </mxCell>
                <mxCell id="89" value="&lt;font style=&quot;font-size: 15px;&quot; face=&quot;JetBrains Mono&quot;&gt;_0,_2,_3,_5,_6&lt;/font&gt;" style="edgeLabel;resizable=0;html=1;;align=center;verticalAlign=middle;" parent="88" connectable="0" vertex="1">
                    <mxGeometry relative="1" as="geometry">
                        <mxPoint y="76" as="offset"/>
                    </mxGeometry>
                </mxCell>
                <mxCell id="92" value="" style="endArrow=classic;html=1;fillColor=#008a00;strokeColor=#005700;strokeWidth=2;exitX=0.5;exitY=1;exitDx=0;exitDy=0;entryX=0.433;entryY=0.024;entryDx=0;entryDy=0;entryPerimeter=0;" parent="31" target="3" edge="1">
                    <mxGeometry relative="1" as="geometry">
                        <mxPoint x="160" y="80" as="sourcePoint"/>
                        <mxPoint x="191" y="170" as="targetPoint"/>
                    </mxGeometry>
                </mxCell>
                <mxCell id="93" value="&lt;font style=&quot;font-size: 15px;&quot; face=&quot;JetBrains Mono&quot;&gt;_1&lt;/font&gt;" style="edgeLabel;resizable=0;html=1;;align=center;verticalAlign=middle;" parent="92" connectable="0" vertex="1">
                    <mxGeometry relative="1" as="geometry"/>
                </mxCell>
                <mxCell id="94" value="" style="endArrow=classic;html=1;fillColor=#008a00;strokeColor=#005700;strokeWidth=2;exitX=0.5;exitY=1;exitDx=0;exitDy=0;entryX=0.433;entryY=0.024;entryDx=0;entryDy=0;entryPerimeter=0;" parent="31" edge="1">
                    <mxGeometry relative="1" as="geometry">
                        <mxPoint x="190" y="80" as="sourcePoint"/>
                        <mxPoint x="191" y="121" as="targetPoint"/>
                    </mxGeometry>
                </mxCell>
                <mxCell id="95" value="&lt;font style=&quot;font-size: 15px;&quot; face=&quot;JetBrains Mono&quot;&gt;_2&lt;/font&gt;" style="edgeLabel;resizable=0;html=1;;align=center;verticalAlign=middle;" parent="94" connectable="0" vertex="1">
                    <mxGeometry relative="1" as="geometry"/>
                </mxCell>
                <mxCell id="98" value="" style="endArrow=classic;html=1;fillColor=#008a00;strokeColor=#005700;strokeWidth=2;entryX=0.433;entryY=0.024;entryDx=0;entryDy=0;entryPerimeter=0;" parent="31" source="3" edge="1">
                    <mxGeometry relative="1" as="geometry">
                        <mxPoint x="179.5" y="159" as="sourcePoint"/>
                        <mxPoint x="180.5" y="200" as="targetPoint"/>
                    </mxGeometry>
                </mxCell>
                <mxCell id="99" value="&lt;font style=&quot;font-size: 15px;&quot; face=&quot;JetBrains Mono&quot;&gt;_1&lt;/font&gt;" style="edgeLabel;resizable=0;html=1;;align=center;verticalAlign=middle;" parent="98" connectable="0" vertex="1">
                    <mxGeometry relative="1" as="geometry"/>
                </mxCell>
                <mxCell id="104" value="" style="endArrow=classic;html=1;fillColor=#008a00;strokeColor=#005700;strokeWidth=2;" parent="31" edge="1">
                    <mxGeometry relative="1" as="geometry">
                        <mxPoint x="179.75" y="230" as="sourcePoint"/>
                        <mxPoint x="180" y="270" as="targetPoint"/>
                    </mxGeometry>
                </mxCell>
                <mxCell id="105" value="&lt;font style=&quot;font-size: 15px;&quot; face=&quot;JetBrains Mono&quot;&gt;_1&lt;/font&gt;" style="edgeLabel;resizable=0;html=1;;align=center;verticalAlign=middle;" parent="104" connectable="0" vertex="1">
                    <mxGeometry relative="1" as="geometry"/>
                </mxCell>
                <mxCell id="35" value="" style="group;fontFamily=JetBrains Mono;fontSize=15;" parent="1" vertex="1" connectable="0">
                    <mxGeometry x="240" y="460" width="627" height="470" as="geometry"/>
                </mxCell>
                <object label="&lt;div&gt;&lt;br&gt;&lt;/div&gt;" bb0="bb" id="30">
                    <mxCell style="rounded=1;whiteSpace=wrap;html=1;arcSize=6;fontFamily=JetBrains Mono;fontSize=15;" parent="35" vertex="1">
                        <mxGeometry x="52.25" width="457.75" height="470" as="geometry"/>
                    </mxCell>
                </object>
                <mxCell id="8" value="&lt;font&gt;_6 = copy _1;&lt;/font&gt;" style="rounded=0;whiteSpace=wrap;html=1;fillColor=#f5f5f5;fontColor=#333333;strokeColor=#666666;fontSize=15;fontFamily=JetBrains Mono;" parent="35" vertex="1">
                    <mxGeometry x="197" y="140" width="287.33" height="30" as="geometry"/>
                </mxCell>
                <mxCell id="9" value="&lt;font&gt;5 = Add(move _6, copy _2);&lt;/font&gt;" style="rounded=0;whiteSpace=wrap;html=1;fillColor=#f5f5f5;fontColor=#333333;strokeColor=#666666;fontSize=15;fontFamily=JetBrains Mono;" parent="35" vertex="1">
                    <mxGeometry x="197" y="220" width="287.33" height="30" as="geometry"/>
                </mxCell>
                <mxCell id="11" value="&lt;font&gt;_0 = Add(move _5, copy _3);&lt;/font&gt;" style="rounded=0;whiteSpace=wrap;html=1;fillColor=#f5f5f5;fontColor=#333333;strokeColor=#666666;fontSize=15;fontFamily=JetBrains Mono;" parent="35" vertex="1">
                    <mxGeometry x="197" y="290" width="287.33" height="30" as="geometry"/>
                </mxCell>
                <mxCell id="12" value="&lt;font&gt;return;&lt;/font&gt;" style="rounded=0;whiteSpace=wrap;html=1;fillColor=#f5f5f5;fontColor=#333333;strokeColor=#666666;fontSize=15;fontFamily=JetBrains Mono;" parent="35" vertex="1">
                    <mxGeometry x="197" y="360" width="287.33" height="30" as="geometry"/>
                </mxCell>
                <mxCell id="32" value="&lt;font&gt;&lt;span&gt;bb2&lt;/span&gt;&lt;/font&gt;" style="text;html=1;align=center;verticalAlign=middle;whiteSpace=wrap;rounded=0;fontFamily=JetBrains Mono;fontSize=15;" parent="35" vertex="1">
                    <mxGeometry x="261.25" y="10" width="104.5" height="30" as="geometry"/>
                </mxCell>
                <mxCell id="109" value="&lt;font&gt;bb2&lt;/font&gt;&lt;span style=&quot;background-color: transparent;&quot;&gt;[IN]&lt;/span&gt;" style="rounded=0;whiteSpace=wrap;html=1;fillColor=#f5f5f5;fontColor=#333333;strokeColor=#666666;fontSize=15;fontFamily=JetBrains Mono;dashed=1;" parent="35" vertex="1">
                    <mxGeometry x="283" y="50" width="77.5" height="40" as="geometry"/>
                </mxCell>
                <mxCell id="110" value="&lt;font&gt;bb2&lt;/font&gt;&lt;span style=&quot;background-color: transparent;&quot;&gt;[OUT]&lt;/span&gt;" style="rounded=0;whiteSpace=wrap;html=1;fillColor=#f5f5f5;fontColor=#333333;strokeColor=#666666;fontSize=15;fontFamily=JetBrains Mono;dashed=1;" parent="35" vertex="1">
                    <mxGeometry x="288.25" y="420" width="77.5" height="40" as="geometry"/>
                </mxCell>
                <mxCell id="111" value="" style="endArrow=classic;html=1;fillColor=#008a00;strokeColor=#005700;strokeWidth=2;exitX=0.5;exitY=1;exitDx=0;exitDy=0;entryX=0.457;entryY=0.086;entryDx=0;entryDy=0;entryPerimeter=0;" parent="35" target="8" edge="1">
                    <mxGeometry relative="1" as="geometry">
                        <mxPoint x="326.5" y="90" as="sourcePoint"/>
                        <mxPoint x="327.5" y="135" as="targetPoint"/>
                    </mxGeometry>
                </mxCell>
                <mxCell id="112" value="&lt;font style=&quot;font-size: 15px;&quot; face=&quot;JetBrains Mono&quot;&gt;_1&lt;/font&gt;" style="edgeLabel;resizable=0;html=1;;align=center;verticalAlign=middle;" parent="111" connectable="0" vertex="1">
                    <mxGeometry relative="1" as="geometry"/>
                </mxCell>
                <mxCell id="117" value="" style="endArrow=classic;html=1;fillColor=#008a00;strokeColor=#005700;strokeWidth=2;exitX=0.5;exitY=1;exitDx=0;exitDy=0;entryX=0.457;entryY=0.042;entryDx=0;entryDy=0;entryPerimeter=0;" parent="35" target="9" edge="1">
                    <mxGeometry relative="1" as="geometry">
                        <mxPoint x="326.25" y="170" as="sourcePoint"/>
                        <mxPoint x="327.75" y="223" as="targetPoint"/>
                    </mxGeometry>
                </mxCell>
                <mxCell id="118" value="&lt;font style=&quot;font-size: 15px;&quot; face=&quot;JetBrains Mono&quot;&gt;_6&lt;/font&gt;" style="edgeLabel;resizable=0;html=1;;align=center;verticalAlign=middle;" parent="117" connectable="0" vertex="1">
                    <mxGeometry relative="1" as="geometry"/>
                </mxCell>
                <mxCell id="119" value="" style="endArrow=classic;html=1;fillColor=#008a00;strokeColor=#005700;strokeWidth=2;edgeStyle=orthogonalEdgeStyle;entryX=0;entryY=0.5;entryDx=0;entryDy=0;" parent="35" target="9" edge="1">
                    <mxGeometry relative="1" as="geometry">
                        <mxPoint x="283" y="80" as="sourcePoint"/>
                        <mxPoint x="283" y="300" as="targetPoint"/>
                        <Array as="points">
                            <mxPoint x="283" y="80"/>
                            <mxPoint x="167" y="80"/>
                            <mxPoint x="167" y="235"/>
                        </Array>
                    </mxGeometry>
                </mxCell>
                <mxCell id="120" value="&lt;font style=&quot;font-size: 15px;&quot; face=&quot;JetBrains Mono&quot;&gt;_2&lt;/font&gt;" style="edgeLabel;resizable=0;html=1;;align=center;verticalAlign=middle;" parent="119" connectable="0" vertex="1">
                    <mxGeometry relative="1" as="geometry">
                        <mxPoint y="83" as="offset"/>
                    </mxGeometry>
                </mxCell>
                <mxCell id="121" value="" style="endArrow=classic;html=1;fillColor=#008a00;strokeColor=#005700;strokeWidth=2;edgeStyle=orthogonalEdgeStyle;entryX=-0.003;entryY=0.602;entryDx=0;entryDy=0;entryPerimeter=0;" parent="35" target="11" edge="1">
                    <mxGeometry relative="1" as="geometry">
                        <mxPoint x="283" y="70" as="sourcePoint"/>
                        <mxPoint x="197" y="225" as="targetPoint"/>
                        <Array as="points">
                            <mxPoint x="283" y="70"/>
                            <mxPoint x="137" y="70"/>
                            <mxPoint x="137" y="310"/>
                            <mxPoint x="187" y="310"/>
                            <mxPoint x="187" y="308"/>
                        </Array>
                    </mxGeometry>
                </mxCell>
                <mxCell id="122" value="&lt;font style=&quot;font-size: 15px;&quot; face=&quot;JetBrains Mono&quot;&gt;_3&lt;/font&gt;" style="edgeLabel;resizable=0;html=1;;align=center;verticalAlign=middle;" parent="121" connectable="0" vertex="1">
                    <mxGeometry relative="1" as="geometry">
                        <mxPoint y="122" as="offset"/>
                    </mxGeometry>
                </mxCell>
                <mxCell id="124" value="" style="endArrow=classic;html=1;fillColor=#008a00;strokeColor=#005700;strokeWidth=2;exitX=0.5;exitY=1;exitDx=0;exitDy=0;entryX=0.452;entryY=0.057;entryDx=0;entryDy=0;entryPerimeter=0;" parent="35" target="11" edge="1">
                    <mxGeometry relative="1" as="geometry">
                        <mxPoint x="326.13" y="250" as="sourcePoint"/>
                        <mxPoint x="327.88" y="301" as="targetPoint"/>
                    </mxGeometry>
                </mxCell>
                <mxCell id="125" value="&lt;font style=&quot;font-size: 15px;&quot; face=&quot;JetBrains Mono&quot;&gt;_5&lt;/font&gt;" style="edgeLabel;resizable=0;html=1;;align=center;verticalAlign=middle;" parent="124" connectable="0" vertex="1">
                    <mxGeometry relative="1" as="geometry"/>
                </mxCell>
                <mxCell id="127" value="" style="endArrow=classic;html=1;fillColor=#008a00;strokeColor=#005700;strokeWidth=2;edgeStyle=orthogonalEdgeStyle;entryX=0;entryY=0.5;entryDx=0;entryDy=0;dashed=1;" parent="35" target="110" edge="1">
                    <mxGeometry relative="1" as="geometry">
                        <mxPoint x="283" y="60" as="sourcePoint"/>
                        <mxPoint x="196" y="298" as="targetPoint"/>
                        <Array as="points">
                            <mxPoint x="283" y="60"/>
                            <mxPoint x="107" y="60"/>
                            <mxPoint x="107" y="440"/>
                        </Array>
                    </mxGeometry>
                </mxCell>
                <mxCell id="128" value="&lt;font style=&quot;font-size: 15px;&quot; face=&quot;JetBrains Mono&quot;&gt;_1,_2,_3&lt;/font&gt;" style="edgeLabel;resizable=0;html=1;;align=center;verticalAlign=middle;" parent="127" connectable="0" vertex="1">
                    <mxGeometry relative="1" as="geometry">
                        <mxPoint x="-11" y="89" as="offset"/>
                    </mxGeometry>
                </mxCell>
                <mxCell id="129" value="" style="endArrow=classic;html=1;fillColor=#008a00;strokeColor=#005700;strokeWidth=2;exitX=0.5;exitY=1;exitDx=0;exitDy=0;entryX=0.452;entryY=0.057;entryDx=0;entryDy=0;entryPerimeter=0;" parent="35" edge="1">
                    <mxGeometry relative="1" as="geometry">
                        <mxPoint x="326.57" y="320" as="sourcePoint"/>
                        <mxPoint x="327.44" y="362" as="targetPoint"/>
                    </mxGeometry>
                </mxCell>
                <mxCell id="130" value="&lt;font style=&quot;font-size: 15px;&quot; face=&quot;JetBrains Mono&quot;&gt;_0&lt;/font&gt;" style="edgeLabel;resizable=0;html=1;;align=center;verticalAlign=middle;" parent="129" connectable="0" vertex="1">
                    <mxGeometry relative="1" as="geometry"/>
                </mxCell>
                <mxCell id="42" value="" style="endArrow=classic;html=1;strokeWidth=2;fontFamily=JetBrains Mono;fontSize=15;exitX=0.473;exitY=1.005;exitDx=0;exitDy=0;fillColor=#0050ef;strokeColor=#001DBC;exitPerimeter=0;entryX=0.474;entryY=0.006;entryDx=0;entryDy=0;entryPerimeter=0;" parent="1" source="13" target="30" edge="1">
                    <mxGeometry relative="1" as="geometry">
                        <mxPoint x="480" y="240" as="sourcePoint"/>
                        <mxPoint x="430" y="536" as="targetPoint"/>
                    </mxGeometry>
                </mxCell>
                <mxCell id="45" value="" style="endArrow=classic;html=1;strokeWidth=2;fontFamily=JetBrains Mono;fontSize=15;entryX=0.5;entryY=0;entryDx=0;entryDy=0;fillColor=#0050ef;strokeColor=#001DBC;exitX=0.367;exitY=1.002;exitDx=0;exitDy=0;exitPerimeter=0;" parent="1" source="13" target="20" edge="1">
                    <mxGeometry relative="1" as="geometry">
                        <mxPoint x="410" y="130" as="sourcePoint"/>
                        <mxPoint x="507" y="386" as="targetPoint"/>
                    </mxGeometry>
                </mxCell>
                <mxCell id="50" value="" style="endArrow=classic;html=1;strokeWidth=2;fontFamily=JetBrains Mono;fontSize=15;entryX=0.089;entryY=0.004;entryDx=0;entryDy=0;fillColor=#0050ef;strokeColor=#001DBC;exitX=0.5;exitY=1;exitDx=0;exitDy=0;entryPerimeter=0;" parent="1" source="20" target="30" edge="1">
                    <mxGeometry relative="1" as="geometry">
                        <mxPoint x="200" y="320" as="sourcePoint"/>
                        <mxPoint x="180" y="200" as="targetPoint"/>
                    </mxGeometry>
                </mxCell>
                <mxCell id="82" value="" style="endArrow=classic;html=1;fillColor=#008a00;strokeColor=#66CC00;strokeWidth=2;exitX=0.033;exitY=0.994;exitDx=0;exitDy=0;entryX=0.1;entryY=0;entryDx=0;entryDy=0;entryPerimeter=0;exitPerimeter=0;dashed=1;" parent="1" source="13" target="20" edge="1">
                    <mxGeometry relative="1" as="geometry">
                        <mxPoint x="300" y="130" as="sourcePoint"/>
                        <mxPoint x="-60" y="240" as="targetPoint"/>
                    </mxGeometry>
                </mxCell>
                <mxCell id="83" value="&lt;font style=&quot;font-size: 15px;&quot; face=&quot;JetBrains Mono&quot;&gt;_0, _1, _2, _3, _5, _6&lt;/font&gt;" style="edgeLabel;resizable=0;html=1;;align=center;verticalAlign=middle;" parent="82" connectable="0" vertex="1">
                    <mxGeometry relative="1" as="geometry">
                        <mxPoint x="-52" y="-9" as="offset"/>
                    </mxGeometry>
                </mxCell>
                <mxCell id="84" value="" style="endArrow=classic;html=1;fillColor=#008a00;strokeColor=#66CC00;strokeWidth=2;exitX=0.57;exitY=1.004;exitDx=0;exitDy=0;exitPerimeter=0;entryX=0.558;entryY=0.004;entryDx=0;entryDy=0;entryPerimeter=0;dashed=1;" parent="1" source="13" target="30" edge="1">
                    <mxGeometry relative="1" as="geometry">
                        <mxPoint x="594" y="210" as="sourcePoint"/>
                        <mxPoint x="640" y="460" as="targetPoint"/>
                    </mxGeometry>
                </mxCell>
                <mxCell id="85" value="&lt;font style=&quot;font-size: 15px;&quot; face=&quot;JetBrains Mono&quot;&gt;_0, _1, _2, _3, _5, _6&lt;/font&gt;" style="edgeLabel;resizable=0;html=1;;align=center;verticalAlign=middle;" parent="84" connectable="0" vertex="1">
                    <mxGeometry relative="1" as="geometry">
                        <mxPoint x="81" y="97" as="offset"/>
                    </mxGeometry>
                </mxCell>
                <mxCell id="106" value="" style="endArrow=classic;html=1;fillColor=#008a00;strokeColor=#66CC00;strokeWidth=2;exitX=0.678;exitY=1.006;exitDx=0;exitDy=0;exitPerimeter=0;entryX=0.194;entryY=0.004;entryDx=0;entryDy=0;entryPerimeter=0;dashed=1;" parent="1" source="20" target="30" edge="1">
                    <mxGeometry relative="1" as="geometry">
                        <mxPoint x="70" y="580" as="sourcePoint"/>
                        <mxPoint x="600" y="763" as="targetPoint"/>
                    </mxGeometry>
                </mxCell>
                <mxCell id="107" value="&lt;font style=&quot;font-size: 15px;&quot; face=&quot;JetBrains Mono&quot;&gt;_0, _1, _2, _3, _5, _6&lt;/font&gt;" style="edgeLabel;resizable=0;html=1;;align=center;verticalAlign=middle;" parent="106" connectable="0" vertex="1">
                    <mxGeometry relative="1" as="geometry">
                        <mxPoint x="87" y="-7" as="offset"/>
                    </mxGeometry>
                </mxCell>
                <mxCell id="146" value="" style="endArrow=none;html=1;fillColor=#008a00;strokeColor=#66CC00;strokeWidth=2;edgeStyle=orthogonalEdgeStyle;exitX=1;exitY=0.5;exitDx=0;exitDy=0;entryX=1.003;entryY=0.678;entryDx=0;entryDy=0;entryPerimeter=0;startArrow=classic;startFill=1;endFill=0;" parent="1" source="8" target="3" edge="1">
                    <mxGeometry relative="1" as="geometry">
                        <mxPoint x="730" y="620" as="sourcePoint"/>
                        <mxPoint x="1070" y="250" as="targetPoint"/>
                        <Array as="points">
                            <mxPoint x="840" y="615"/>
                            <mxPoint x="840" y="240"/>
                        </Array>
                    </mxGeometry>
                </mxCell>
                <mxCell id="147" value="&lt;font style=&quot;font-size: 15px;&quot; face=&quot;JetBrains Mono&quot;&gt;_1&lt;/font&gt;" style="edgeLabel;resizable=0;html=1;;align=center;verticalAlign=middle;" parent="146" connectable="0" vertex="1">
                    <mxGeometry relative="1" as="geometry">
                        <mxPoint x="19" y="120" as="offset"/>
                    </mxGeometry>
                </mxCell>
                <mxCell id="150" value="" style="endArrow=none;html=1;fillColor=#647687;strokeColor=#314354;strokeWidth=2;edgeStyle=orthogonalEdgeStyle;exitX=1;exitY=0.5;exitDx=0;exitDy=0;startArrow=classic;startFill=1;endFill=0;dashed=1;dashPattern=1 4;" parent="1" source="9" edge="1">
                    <mxGeometry relative="1" as="geometry">
                        <mxPoint x="843" y="575" as="sourcePoint"/>
                        <mxPoint x="605" y="-180" as="targetPoint"/>
                        <Array as="points">
                            <mxPoint x="880" y="695"/>
                            <mxPoint x="880" y="-180"/>
                            <mxPoint x="605" y="-180"/>
                        </Array>
                    </mxGeometry>
                </mxCell>
                <mxCell id="151" value="&lt;font style=&quot;font-size: 15px;&quot; face=&quot;JetBrains Mono&quot;&gt;_2&lt;/font&gt;" style="edgeLabel;resizable=0;html=1;;align=center;verticalAlign=middle;" parent="150" connectable="0" vertex="1">
                    <mxGeometry relative="1" as="geometry">
                        <mxPoint y="162" as="offset"/>
                    </mxGeometry>
                </mxCell>
                <mxCell id="152" value="" style="endArrow=none;html=1;fillColor=#647687;strokeColor=#314354;strokeWidth=2;edgeStyle=orthogonalEdgeStyle;startArrow=classic;startFill=1;endFill=0;entryX=1;entryY=0.5;entryDx=0;entryDy=0;exitX=0.996;exitY=0.646;exitDx=0;exitDy=0;exitPerimeter=0;dashed=1;dashPattern=1 4;" parent="1" source="11" target="55" edge="1">
                    <mxGeometry relative="1" as="geometry">
                        <mxPoint x="730" y="770" as="sourcePoint"/>
                        <mxPoint x="640" y="-190" as="targetPoint"/>
                        <Array as="points">
                            <mxPoint x="920" y="769"/>
                            <mxPoint x="920" y="-190"/>
                        </Array>
                    </mxGeometry>
                </mxCell>
                <mxCell id="153" value="&lt;font style=&quot;font-size: 15px;&quot; face=&quot;JetBrains Mono&quot;&gt;_3&lt;/font&gt;" style="edgeLabel;resizable=0;html=1;;align=center;verticalAlign=middle;" parent="152" connectable="0" vertex="1">
                    <mxGeometry relative="1" as="geometry">
                        <mxPoint y="130" as="offset"/>
                    </mxGeometry>
                </mxCell>
                <mxCell id="154" value="" style="endArrow=none;html=1;fillColor=#647687;strokeColor=#314354;strokeWidth=2;edgeStyle=orthogonalEdgeStyle;startArrow=classic;startFill=1;endFill=0;dashed=1;dashPattern=1 4;entryX=0;entryY=0.5;entryDx=0;entryDy=0;exitX=0;exitY=0.25;exitDx=0;exitDy=0;" edge="1" parent="1" source="3" target="55">
                    <mxGeometry relative="1" as="geometry">
                        <mxPoint x="150" y="240" as="sourcePoint"/>
                        <mxPoint x="350" y="-190" as="targetPoint"/>
                        <Array as="points">
                            <mxPoint x="-60" y="228"/>
                            <mxPoint x="-60" y="-190"/>
                        </Array>
                    </mxGeometry>
                </mxCell>
                <mxCell id="155" value="&lt;font style=&quot;font-size: 15px;&quot; face=&quot;JetBrains Mono&quot;&gt;_2&lt;/font&gt;" style="edgeLabel;resizable=0;html=1;;align=center;verticalAlign=middle;" connectable="0" vertex="1" parent="154">
                    <mxGeometry relative="1" as="geometry">
                        <mxPoint x="-34" y="210" as="offset"/>
                    </mxGeometry>
                </mxCell>
                <mxCell id="156" value="" style="endArrow=none;html=1;fillColor=#647687;strokeColor=#314354;strokeWidth=2;edgeStyle=orthogonalEdgeStyle;startArrow=classic;startFill=1;endFill=0;dashed=1;dashPattern=1 4;entryX=0;entryY=0.25;entryDx=0;entryDy=0;" edge="1" parent="1" target="55">
                    <mxGeometry relative="1" as="geometry">
                        <mxPoint x="30" y="240" as="sourcePoint"/>
                        <mxPoint x="520" y="-200" as="targetPoint"/>
                        <Array as="points">
                            <mxPoint x="-90" y="240"/>
                            <mxPoint x="-90" y="-200"/>
                        </Array>
                    </mxGeometry>
                </mxCell>
                <mxCell id="157" value="&lt;font style=&quot;font-size: 15px;&quot; face=&quot;JetBrains Mono&quot;&gt;_1&lt;/font&gt;" style="edgeLabel;resizable=0;html=1;;align=center;verticalAlign=middle;" connectable="0" vertex="1" parent="156">
                    <mxGeometry relative="1" as="geometry">
                        <mxPoint x="-29" y="220" as="offset"/>
                    </mxGeometry>
                </mxCell>
            </root>
        </mxGraphModel>
    </diagram>
</mxfile>